<svg id="Capa_1" enable-background="new 0 0 512 512" height="512" viewBox="0 0 512 512" width="512" xmlns="http://www.w3.org/2000/svg"><g><g><path d="m473.511 347.582 29.153 53.524c3.864 7.095 1.441 15.975-5.492 20.123l-13.838 8.279c-7.463 4.465-17.145 1.698-21.122-6.037l-37.712-73.353z" fill="#bcf1f8"/><path d="m497.17 421.23-13.84 8.28c-7.28 4.35-16.68 1.83-20.82-5.49l4.66-2.79c6.93-4.15 9.36-13.03 5.49-20.12l-28.33-52.02 29.18-1.51 29.15 53.53c3.87 7.09 1.44 15.97-5.49 20.12z" fill="#91f2f2"/><path d="m28.541 339.96 129.783-11.457 108.229 16.51 216.947-12.513v-43c0-44.183-35.817-80-80-80h-105.823c-6.366 0-12.353-3.031-16.121-8.163l-68.237-92.927c-3.78-5.148-5.819-11.369-5.819-17.756v-56.154c0-8.284-6.716-15-15-15h-38.631c-11.051 0-22.025 1.832-32.476 5.421l-72.388 24.856c-8.08 2.774-13.505 10.373-13.505 18.916v51.05c0 19.058-4.816 37.807-14 54.506-9.184 16.699-14 35.448-14 54.506v72.745z" fill="#cbb0f2"/><path d="m297.68 209.5h-30c-6.37 0-12.36-3.03-16.12-8.16l-68.24-92.93c-3.78-5.15-5.82-11.37-5.82-17.76v-56.15c0-8.28-6.72-15-15-15h30c8.28 0 15 6.72 15 15v56.15c0 6.39 2.04 12.61 5.82 17.76l68.24 92.93c3.76 5.13 9.75 8.16 16.12 8.16z" fill="#b696ef"/><path d="m483.5 289.5v43h-30v-43c0-44.18-35.82-80-80-80h30c44.18 0 80 35.82 80 80z" fill="#b696ef"/><path d="m45.5 360.5 16.475 65.787 62.414-3.787 13.623-24.813c1.756-3.199 5.116-5.187 8.766-5.187h172.333c3.65 0 7.009 1.988 8.766 5.187l13.623 24.813 68.525 3.787 16.475-65.787-190.5-10.137-81.344-33.936z" fill="#736572"/><path d="m426.5 360.5-16.47 65.79-29.59-1.64 16.06-64.15z" fill="#615260"/><path d="m483.5 332.5v15c0 8.284-6.716 15-15 15h-253.055c-8.674 0-17.114-2.82-24.046-8.035l-28.888-21.731c-6.591-4.958-16.011-.256-16.011 7.991v6.774c0 8.284-6.716 15-15 15h-98.562c-6.518 0-12.289-4.209-14.282-10.414l-7.805-24.308c-2.221-6.916-3.351-14.136-3.351-21.4v-3.623h157.741c8.541.075 16.834 2.881 23.665 8.009l23.618 17.73c3.463 2.6 7.677 4.005 12.007 4.005h258.969z" fill="#fcf1f2"/><path d="m483.5 332.5v15c0 8.28-6.72 15-15 15h-30c8.28 0 15-6.72 15-15v-15z" fill="#f4e5e0"/><path d="m384.5 492.5c-27.614 0-50-22.386-50-50 0-27.614 22.386-50 50-50 27.614 0 50 22.386 50 50 0 27.614-22.386 50-50 50z" fill="#00ddf9"/><path d="m434.5 442.5c0 13.8-5.6 26.3-14.65 35.35s-21.55 14.65-35.35 14.65c-5.23 0-10.27-.8-15-2.3 7.77-2.44 14.73-6.73 20.35-12.35 9.05-9.05 14.65-21.55 14.65-35.35s-5.6-26.3-14.65-35.35c-5.62-5.62-12.58-9.91-20.35-12.35 4.73-1.5 9.77-2.3 15-2.3 13.8 0 26.3 5.6 35.35 14.65s14.65 21.55 14.65 35.35z" fill="#00c7f8"/><path d="m384.5 462.5c-11.046 0-20-8.954-20-20 0-11.046 8.954-20 20-20 11.046 0 20 8.954 20 20 0 11.046-8.954 20-20 20z" fill="#fff"/><path d="m87.5 492.5c27.614 0 50-22.386 50-50 0-27.614-22.386-50-50-50-27.614 0-50 22.386-50 50 0 27.614 22.386 50 50 50z" fill="#00ddf9"/><path d="m137.5 442.5c0 27.61-22.39 50-50 50-5.23 0-10.27-.8-15-2.3 20.29-6.37 35-25.32 35-47.7 0-13.8-5.6-26.3-14.65-35.35-5.62-5.62-12.58-9.91-20.35-12.35 4.73-1.5 9.77-2.3 15-2.3 13.8 0 26.3 5.6 35.35 14.65s14.65 21.55 14.65 35.35z" fill="#00c7f8"/><path d="m87.5 462.5c-11.046 0-20-8.954-20-20 0-11.046 8.954-20 20-20 11.046 0 20 8.954 20 20 0 11.046-8.954 20-20 20z" fill="#fff"/><path d="m62.004 257.755h-54.504v45h94l-12.082-27.184c-4.815-10.834-15.559-17.816-27.414-17.816z" fill="#f2d1ff"/></g><g><path d="m384.486 414.994c-15.163 0-27.499 12.336-27.499 27.499s12.336 27.499 27.499 27.499 27.499-12.336 27.499-27.499c-.001-15.163-12.337-27.499-27.499-27.499zm0 39.998c-6.892 0-12.5-5.607-12.5-12.5 0-6.892 5.607-12.5 12.5-12.5 6.892 0 12.5 5.607 12.5 12.5-.001 6.893-5.608 12.5-12.5 12.5z"/><path d="m87.497 414.994c-15.163 0-27.499 12.336-27.499 27.499s12.336 27.499 27.499 27.499 27.499-12.336 27.499-27.499-12.337-27.499-27.499-27.499zm0 39.998c-6.892 0-12.5-5.607-12.5-12.5 0-6.892 5.607-12.5 12.5-12.5s12.5 5.607 12.5 12.5c-.001 6.893-5.608 12.5-12.5 12.5z"/><path d="m509.231 397.513-21.194-38.91c1.87-3.279 2.944-7.069 2.944-11.106v-57.998c0-48.246-39.25-87.497-87.497-87.497h-105.818c-3.963 0-7.729-1.907-10.076-5.101l-68.234-92.924c-2.854-3.889-4.364-8.493-4.364-13.316v-56.153c0-12.406-10.093-22.499-22.499-22.499h-38.629c-11.906 0-23.651 1.96-34.911 5.827l-72.385 24.856c-11.107 3.813-18.569 14.265-18.569 26.008v16.05c0 4.142 3.357 7.5 7.5 7.5s7.5-3.358 7.5-7.5v-16.05c0-5.338 3.391-10.088 8.44-11.822l72.385-24.856c9.688-3.327 19.795-5.013 30.04-5.013h38.629c4.136 0 7.5 3.364 7.5 7.5v56.152c0 7.663 2.291 14.993 6.627 21.275l-20.214 15.246c-3.307 2.494-3.966 7.197-1.471 10.504 2.507 3.327 7.226 3.951 10.504 1.472l20.042-15.117 21.189 28.856-20.265 15.285c-3.307 2.494-3.966 7.197-1.471 10.504 2.507 3.327 7.226 3.951 10.504 1.472l20.111-15.168 21.188 28.855-20.333 15.336c-3.307 2.494-3.966 7.197-1.471 10.504 2.507 3.327 7.226 3.951 10.504 1.472l20.183-15.224c5.169 6.934 13.393 11.071 22.047 11.071h.323v25.499c0 4.142 3.357 7.5 7.5 7.5s7.5-3.358 7.5-7.5v-25.499h39.999v25.499c0 4.142 3.357 7.5 7.5 7.5s7.5-3.358 7.5-7.5v-25.499h35.499c39.975 0 72.497 32.522 72.497 72.497v35.499h-25.494c-4.142 0-7.5 3.358-7.5 7.5s3.357 7.5 7.5 7.5h25.494v7.5c0 4.136-3.364 7.5-7.5 7.5h-253.048c-7.003 0-13.941-2.318-19.536-6.528l-28.887-21.73c-5.336-4.013-12.362-4.655-18.335-1.673s-9.684 8.981-9.684 15.658v6.774c0 4.136-3.364 7.5-7.5 7.5h-98.558c-3.271 0-6.141-2.093-7.141-5.207l-7.804-24.307c-1.589-4.95-2.552-10.057-2.872-15.228h86.35c.01 0 .021.002.031.002.014 0 .029-.002.043-.002h63.626c6.989.061 13.637 2.311 19.227 6.508l23.617 17.729c4.731 3.551 10.594 5.507 16.509 5.507h190.966c4.142 0 7.5-3.358 7.5-7.5s-3.357-7.5-7.5-7.5h-190.966c-2.688 0-5.353-.889-7.504-2.503l-23.617-17.729c-8.17-6.133-17.887-9.422-28.167-9.511h-58.865l-10.102-22.729c-6.011-13.528-19.462-22.269-34.266-22.269h-47.003v-21.5c0-17.744 4.52-35.342 13.071-50.89 9.766-17.756 14.928-37.853 14.928-58.118 0-4.142-3.357-7.5-7.5-7.5s-7.5 3.358-7.5 7.5c0 17.744-4.52 35.342-13.071 50.89-9.765 17.75-14.927 37.847-14.927 58.112v77.62c0 8.052 1.248 16.023 3.711 23.691l7.804 24.307c2.999 9.344 11.608 15.621 21.422 15.621h7.209l7.735 30.885c-11.003 10.48-17.882 25.254-17.882 41.613 0 31.704 25.793 57.498 57.498 57.498s57.498-25.793 57.498-57.498c0-10.292-2.731-19.952-7.488-28.319l7.073-12.883c.439-.8 1.279-1.297 2.191-1.297h172.327c.912 0 1.752.497 2.191 1.296l10.278 18.72c-2.947 6.91-4.581 14.508-4.581 22.482 0 31.704 25.793 57.498 57.498 57.498s57.498-25.793 57.498-57.498c0-16.359-6.878-31.132-17.881-41.612l5.911-23.608 25.511 49.621c5.558 11.376 20.896 15.769 31.64 9.044l13.837-8.279c10.428-6.236 14.042-19.478 8.231-30.145zm-447.229-132.258c8.882 0 16.952 5.244 20.56 13.361l7.395 16.638h-74.958v-29.999zm25.495 219.736c-23.434 0-42.498-19.065-42.498-42.498s19.065-42.498 42.498-42.498 42.498 19.065 42.498 42.498-19.065 42.498-42.498 42.498zm339.487-42.498c0 23.434-19.065 42.498-42.498 42.498s-42.498-19.065-42.498-42.498 19.065-42.498 42.498-42.498 42.498 19.064 42.498 42.498zm-42.498-57.498c-17.559 0-33.294 7.92-43.849 20.365l-6.198-11.289c-3.075-5.598-8.953-9.076-15.339-9.076h-172.328c-6.386 0-12.264 3.478-15.339 9.077l-3.938 7.172c-10.357-10.046-24.463-16.249-39.998-16.249-9.556 0-18.567 2.356-26.504 6.499l-5.384-21.498h75.886c12.406 0 22.499-10.093 22.499-22.499v-6.774c.316-2.34 1.942-3.151 4.003-1.998l28.887 21.73c8.178 6.153 18.319 9.541 28.554 9.541h200.937l-5.383 21.498c-7.939-4.142-16.95-6.499-26.506-6.499zm108.816 29.792-13.837 8.279c-3.594 2.263-8.746.791-10.6-3.03l-25.727-50.041h25.345c2.779 0 5.44-.51 7.899-1.435l19.677 36.128c1.946 3.574.736 8.01-2.757 10.099z"/></g></g></svg>